<?xml version="1.0" encoding="utf-8"?>
<!-- Generator: Adobe Illustrator 21.1.0, SVG Export Plug-In . SVG Version: 6.00 Build 0)  -->
<svg version="1.1" id="Layer_1" xmlns="http://www.w3.org/2000/svg" xmlns:xlink="http://www.w3.org/1999/xlink" x="0px" y="0px"
	 viewBox="0 0 100 60" style="enable-background:new 0 0 100 60;" xml:space="preserve">
<style type="text/css">
	.st0{fill:#FFFFFF;}
</style>
<g>
	<path class="st0" d="M15.456,24.347c1.109,1.299,2.083,3.221,2.083,5.642c0,3.944-2.371,6.325-4.914,6.325
		c-1.248,0-2.461-0.438-3.195-0.999c4.057-1.719,6.444-5.268,6.444-8.295C15.874,25.888,15.664,24.982,15.456,24.347 M3.174,23.372
		c0.636-0.208,1.542-0.418,2.674-0.418c3.027,0,6.575,2.388,8.295,6.445c0.562-0.733,0.999-1.947,0.999-3.195
		c0-2.543-2.381-4.915-6.325-4.915C6.396,21.289,4.474,22.262,3.174,23.372 M2.2,35.653c-0.208-0.636-0.418-1.541-0.418-2.673
		c0-3.026,2.388-6.575,6.445-8.294c-0.734-0.562-1.948-0.999-3.195-0.999c-2.543,0-4.915,2.38-4.915,6.325
		C0.117,32.433,1.091,34.355,2.2,35.653 M14.481,36.628c-0.636,0.208-1.541,0.418-2.673,0.418c-3.027,0-6.575-2.387-8.295-6.444
		c-0.562,0.733-0.999,1.947-0.999,3.194c0,2.544,2.38,4.915,6.325,4.915C11.26,38.711,13.182,37.738,14.481,36.628"/>
	<g>
		<polygon class="st0" points="97.677,36.556 97.473,36.556 97.473,35.279 97.007,35.279 97.007,35.099 98.145,35.099 
			98.145,35.279 97.677,35.279 		"/>
		<polygon class="st0" points="99.131,36.218 99.138,36.218 99.567,35.099 99.883,35.099 99.883,36.556 99.68,36.556 99.68,35.339 
			99.675,35.339 99.194,36.556 99.061,36.556 98.582,35.339 98.577,35.339 98.577,36.556 98.379,36.556 98.379,35.099 
			98.698,35.099 		"/>
	</g>
	<g>
		<path class="st0" d="M34.642,30.01c0-3.984,2.314-6.732,6.12-6.732c3.806,0,6.12,2.768,6.12,6.732c0,4.022-2.374,6.711-6.12,6.711
			C36.976,36.722,34.642,34.033,34.642,30.01 M44.384,30.01c0-2.908-1.182-4.721-3.621-4.721c-2.382,0-3.622,1.733-3.622,4.721
			c0,2.967,1.241,4.7,3.622,4.7C43.124,34.711,44.384,32.977,44.384,30.01"/>
		<polyline class="st0" points="63.877,23.444 63.877,36.556 71.968,36.556 71.968,34.607 66.263,34.607 66.263,30.846 
			71.291,30.846 71.291,28.895 66.263,28.895 66.263,25.394 71.312,25.394 71.949,23.444 63.877,23.444 		"/>
		<path class="st0" d="M56.356,29.48l-0.618,1.895h1.998v2.938c-0.508,0.239-1.044,0.399-1.903,0.399
			c-2.772,0-4.148-1.852-4.148-4.681c0-2.789,1.395-4.741,4.231-4.741c1.04,0,2.094,0.335,2.971,0.886l0.656-2.011
			c-1.032-0.538-2.401-0.886-3.802-0.886c-4.006,0-6.553,2.928-6.553,6.911c0,3.764,2.254,6.531,6.47,6.531
			c1.796,0,3.27-0.458,4.441-1.055V29.48h-0.001H56.356z"/>
		<path class="st0" d="M23.607,23.444h3.951c3.62,0,4.749,2.246,4.749,3.998c0,2.455-1.86,3.394-2.397,3.595v0.084
			c0.257,0.074,0.806,0.333,1.518,1.611l2.168,3.825h-2.684l-1.873-3.313c-0.754-1.355-1.06-1.793-2.266-1.793h-0.837v5.106h-2.331
			V23.444 M27.498,29.498c2.005,0,2.419-1.255,2.419-2.071c0-0.698-0.359-2.032-2.419-2.032h-1.56v4.103H27.498z"/>
		<path class="st0" d="M75.334,23.444h3.95c3.619,0,4.749,2.246,4.749,3.998c0,2.455-1.86,3.394-2.397,3.595v0.084
			c0.256,0.074,0.806,0.333,1.518,1.611l2.168,3.825h-2.684l-1.873-3.313c-0.754-1.355-1.06-1.793-2.266-1.793h-0.837v5.106h-2.329
			V23.444 M79.223,29.498c2.006,0,2.42-1.255,2.42-2.071c0-0.698-0.36-2.032-2.42-2.032h-1.56v4.103H79.223z"/>
		<path class="st0" d="M89.539,26.766c0-1.037,0.984-1.481,2.083-1.481c1.473,0,2.611,0.489,2.84,0.576V23.67
			c-0.184-0.056-1.195-0.394-3.064-0.394c-2.865,0-4.405,1.692-4.405,3.621c0,1.924,1.562,2.916,2.863,3.609
			c0.297,0.158,0.657,0.35,0.94,0.5c1.078,0.574,1.869,1.024,1.869,2.021c0,1.134-1.095,1.671-2.189,1.671
			c-1.868,0-3.002-0.683-3.194-0.788l-0.633,1.938c0.185,0.111,1.674,0.871,3.871,0.871c2.686,0,4.692-1.573,4.692-3.901
			c0-1.652-1.124-2.699-2.972-3.683c-0.323-0.172-0.568-0.302-0.873-0.465C90.337,28.122,89.539,27.69,89.539,26.766z"/>
	</g>
</g>
</svg>
